<?xml version="1.0"?>
<svg xmlns="http://www.w3.org/2000/svg" xmlns:xlink="http://www.w3.org/1999/xlink" version="1.1" id="Capa_1" x="0px" y="0px" viewBox="0 0 480 480" style="enable-background:new 0 0 480 480;" xml:space="preserve" width="512px" height="512px" class=""><g><g>
	<g>
		<path d="M360,0H120c-13.255,0-24,10.745-24,24v432c0,13.255,10.745,24,24,24h240c13.255,0,24-10.745,24-24V24    C384,10.745,373.255,0,360,0z M368,456c0,4.418-3.582,8-8,8H120c-4.418,0-8-3.582-8-8v-24h256V456z M368,416H112V64h256V416z     M368,48H112V24c0-4.418,3.582-8,8-8h240c4.418,0,8,3.582,8,8V48z" data-original="#000000" class="active-path" data-old_color="#000000" fill="#580E9E"/>
	</g>
</g><g>
	<g>
		<rect x="56" y="48" width="16" height="384" data-original="#000000" class="active-path" data-old_color="#000000" fill="#580E9E"/>
	</g>
</g><g>
	<g>
		<rect x="408" y="48" width="16" height="384" data-original="#000000" class="active-path" data-old_color="#000000" fill="#580E9E"/>
	</g>
</g><g>
	<g>
		<rect x="16" y="144" width="16" height="192" data-original="#000000" class="active-path" data-old_color="#000000" fill="#580E9E"/>
	</g>
</g><g>
	<g>
		<rect x="448" y="144" width="16" height="192" data-original="#000000" class="active-path" data-old_color="#000000" fill="#580E9E"/>
	</g>
</g><g>
	<g>
		<rect x="224" y="24" width="32" height="16" data-original="#000000" class="active-path" data-old_color="#000000" fill="#580E9E"/>
	</g>
</g></g> </svg>
